<?xml version="1.0" encoding="UTF-8"?>
<svg xmlns="http://www.w3.org/2000/svg" xmlns:xlink="http://www.w3.org/1999/xlink" width="3024" height="2470" viewBox="0 0 3024 2470">

<path fill-rule="nonzero" fill="rgb(99.21875%, 84.764099%, 65.818787%)" fill-opacity="1" d="M 55.492188 0 C 51.148438 0 47.007812 0.878906 43.242188 2.480469 C 39.476562 4.070312 36.082031 6.378906 33.230469 9.230469 C 30.382812 12.078125 28.074219 15.46875 26.476562 19.230469 C 24.882812 23 24 27.128906 24 31.46875 L 24 378.570312 C 24 382.910156 24.882812 387.050781 26.476562 390.820312 C 28.074219 394.578125 30.382812 397.980469 33.230469 400.820312 C 36.082031 403.679688 39.476562 405.980469 43.242188 407.578125 C 47.007812 409.179688 51.148438 410.058594 55.492188 410.058594 L 402.566406 410.058594 C 406.910156 410.058594 411.050781 409.179688 414.816406 407.578125 C 418.582031 405.980469 421.976562 403.679688 424.828125 400.820312 C 427.675781 397.980469 429.984375 394.578125 431.582031 390.820312 C 433.175781 387.050781 434.058594 382.910156 434.058594 378.570312 L 434.058594 31.46875 C 434.058594 27.128906 433.175781 23 431.582031 19.230469 C 429.984375 15.46875 427.675781 12.078125 424.828125 9.230469 C 421.976562 6.378906 418.582031 4.070312 414.816406 2.480469 C 411.050781 0.878906 406.910156 0 402.566406 0 Z M 573.363281 0.921875 C 569.019531 0.921875 564.878906 1.808594 561.113281 3.398438 C 557.347656 5 553.953125 7.308594 551.101562 10.148438 C 548.25 13 545.945312 16.398438 544.347656 20.160156 C 542.753906 23.929688 541.871094 28.070312 541.871094 32.410156 L 541.871094 379.511719 C 541.871094 383.851562 542.753906 387.980469 544.347656 391.75 C 545.945312 395.511719 548.25 398.898438 551.101562 401.75 C 553.953125 404.601562 557.347656 406.910156 561.113281 408.5 C 564.878906 410.101562 569.019531 410.980469 573.363281 410.980469 L 920.4375 410.980469 C 924.78125 410.980469 928.917969 410.101562 932.6875 408.5 C 936.453125 406.910156 939.847656 404.601562 942.695312 401.75 C 945.546875 398.898438 947.855469 395.511719 949.449219 391.75 C 951.046875 387.980469 951.929688 383.851562 951.929688 379.511719 L 951.929688 32.410156 C 951.929688 28.070312 951.046875 23.929688 949.449219 20.160156 C 947.855469 16.398438 945.546875 13 942.695312 10.148438 C 939.847656 7.308594 936.453125 5 932.6875 3.398438 C 928.917969 1.808594 924.78125 0.921875 920.4375 0.921875 Z M 1091.230469 1.871094 C 1086.890625 1.871094 1082.75 2.75 1078.980469 4.339844 C 1075.21875 5.941406 1071.820312 8.25 1068.96875 11.101562 C 1066.121094 13.949219 1063.820312 17.339844 1062.21875 21.109375 C 1060.628906 24.871094 1059.738281 29.019531 1059.738281 33.359375 L 1059.738281 380.429688 C 1059.738281 384.78125 1060.628906 388.910156 1062.21875 392.679688 C 1063.820312 396.449219 1066.121094 399.839844 1068.96875 402.691406 C 1071.820312 405.539062 1075.21875 407.851562 1078.980469 409.441406 C 1082.75 411.039062 1086.890625 411.929688 1091.230469 411.929688 L 1438.308594 411.929688 C 1442.648438 411.929688 1446.789062 411.039062 1450.558594 409.441406 C 1454.320312 407.851562 1457.71875 405.539062 1460.570312 402.691406 C 1463.421875 399.839844 1465.730469 396.449219 1467.320312 392.679688 C 1468.921875 388.910156 1469.800781 384.78125 1469.800781 380.429688 L 1469.800781 33.359375 C 1469.800781 29.019531 1468.921875 24.871094 1467.320312 21.109375 C 1465.730469 17.339844 1463.421875 13.949219 1460.570312 11.101562 C 1457.71875 8.25 1454.320312 5.941406 1450.558594 4.339844 C 1446.789062 2.75 1442.648438 1.871094 1438.308594 1.871094 Z M 1609.109375 2.808594 C 1604.761719 2.808594 1600.621094 3.691406 1596.859375 5.289062 C 1593.089844 6.878906 1589.691406 9.191406 1586.839844 12.039062 C 1584 14.890625 1581.691406 18.289062 1580.089844 22.058594 C 1578.5 25.820312 1577.609375 29.960938 1577.609375 34.300781 L 1577.609375 381.378906 C 1577.609375 385.71875 1578.5 389.859375 1580.089844 393.621094 C 1581.691406 397.390625 1584 400.78125 1586.839844 403.640625 C 1589.691406 406.488281 1593.089844 408.800781 1596.859375 410.390625 C 1600.621094 411.988281 1604.761719 412.871094 1609.109375 412.871094 L 1956.179688 412.871094 C 1960.519531 412.871094 1964.660156 411.988281 1968.429688 410.390625 C 1972.191406 408.800781 1975.589844 406.488281 1978.441406 403.640625 C 1981.289062 400.78125 1983.601562 397.390625 1985.191406 393.621094 C 1986.789062 389.859375 1987.671875 385.71875 1987.671875 381.378906 L 1987.671875 34.300781 C 1987.671875 29.960938 1986.789062 25.820312 1985.191406 22.058594 C 1983.601562 18.289062 1981.289062 14.890625 1978.441406 12.039062 C 1975.589844 9.191406 1972.191406 6.878906 1968.429688 5.289062 C 1964.660156 3.691406 1960.519531 2.808594 1956.179688 2.808594 Z M 2126.980469 3.75 C 2122.628906 3.75 2118.488281 4.640625 2114.730469 6.230469 C 2110.960938 7.828125 2107.570312 10.128906 2104.71875 12.980469 C 2101.859375 15.828125 2099.558594 19.230469 2097.960938 22.988281 C 2096.371094 26.75 2095.480469 30.890625 2095.480469 35.21875 L 2095.480469 382.320312 C 2095.480469 386.660156 2096.371094 390.808594 2097.960938 394.570312 C 2099.558594 398.339844 2101.859375 401.730469 2104.71875 404.578125 C 2107.570312 407.429688 2110.960938 409.738281 2114.730469 411.339844 C 2118.488281 412.929688 2122.628906 413.808594 2126.980469 413.808594 L 2474.050781 413.808594 C 2478.390625 413.808594 2482.53125 412.929688 2486.300781 411.339844 C 2490.070312 409.738281 2493.460938 407.429688 2496.308594 404.578125 C 2499.160156 401.730469 2501.46875 398.339844 2503.058594 394.570312 C 2504.660156 390.808594 2505.539062 386.660156 2505.539062 382.320312 L 2505.539062 35.21875 C 2505.539062 30.890625 2504.660156 26.75 2503.058594 22.988281 C 2501.46875 19.230469 2499.160156 15.828125 2496.308594 12.980469 C 2493.460938 10.128906 2490.070312 7.828125 2486.300781 6.230469 C 2482.53125 4.640625 2478.390625 3.75 2474.050781 3.75 Z M 2644.839844 4.679688 C 2640.5 4.679688 2636.359375 5.558594 2632.601562 7.160156 C 2628.828125 8.75 2625.441406 11.070312 2622.589844 13.921875 C 2619.730469 16.769531 2617.429688 20.160156 2615.828125 23.929688 C 2614.238281 27.691406 2613.359375 31.828125 2613.359375 36.171875 L 2613.359375 383.269531 C 2613.359375 387.601562 2614.238281 391.738281 2615.828125 395.5 C 2617.429688 399.269531 2619.730469 402.660156 2622.589844 405.511719 C 2625.441406 408.359375 2628.828125 410.660156 2632.601562 412.261719 C 2636.359375 413.851562 2640.5 414.730469 2644.839844 414.730469 L 2991.921875 414.730469 C 2996.269531 414.730469 3000.398438 413.851562 3004.171875 412.261719 C 3007.941406 410.660156 3011.328125 408.359375 3014.179688 405.511719 C 3017.03125 402.660156 3019.339844 399.269531 3020.929688 395.5 C 3022.53125 391.738281 3023.410156 387.601562 3023.410156 383.269531 L 3023.410156 36.171875 C 3023.410156 31.828125 3022.53125 27.691406 3020.929688 23.929688 C 3019.339844 20.160156 3017.03125 16.769531 3014.179688 13.921875 C 3011.328125 11.070312 3007.941406 8.75 3004.171875 7.160156 C 3000.398438 5.558594 2996.269531 4.679688 2991.921875 4.679688 Z M 55.492188 508.089844 C 51.148438 508.089844 47.007812 508.980469 43.242188 510.570312 C 39.476562 512.171875 36.082031 514.480469 33.230469 517.320312 C 30.382812 520.171875 28.074219 523.570312 26.476562 527.328125 C 24.882812 531.089844 24 535.230469 24 539.558594 L 24 886.660156 C 24 891 24.882812 895.140625 26.476562 898.910156 C 28.074219 902.679688 30.382812 906.070312 33.230469 908.921875 C 36.082031 911.769531 39.476562 914.078125 43.242188 915.679688 C 47.007812 917.269531 51.148438 918.148438 55.492188 918.148438 L 402.566406 918.148438 C 406.910156 918.148438 411.050781 917.269531 414.816406 915.679688 C 418.582031 914.078125 421.976562 911.769531 424.828125 908.921875 C 427.675781 906.070312 429.984375 902.679688 431.582031 898.910156 C 433.175781 895.140625 434.058594 891 434.058594 886.660156 L 434.058594 539.558594 C 434.058594 535.230469 433.175781 531.089844 431.582031 527.328125 C 429.984375 523.570312 427.675781 520.171875 424.828125 517.320312 C 421.976562 514.480469 418.582031 512.171875 414.816406 510.570312 C 411.050781 508.980469 406.910156 508.089844 402.566406 508.089844 Z M 573.363281 509.019531 C 569.019531 509.019531 564.878906 509.898438 561.113281 511.5 C 557.347656 513.089844 553.953125 515.398438 551.101562 518.25 C 548.25 521.101562 545.945312 524.488281 544.347656 528.261719 C 542.753906 532.03125 541.871094 536.160156 541.871094 540.511719 L 541.871094 887.609375 C 541.871094 891.941406 542.753906 896.078125 544.347656 899.839844 C 545.945312 903.609375 548.25 907 551.101562 909.851562 C 553.953125 912.691406 557.347656 915 561.113281 916.601562 C 564.878906 918.191406 569.019531 919.070312 573.363281 919.070312 L 920.4375 919.070312 C 924.78125 919.070312 928.917969 918.191406 932.6875 916.601562 C 936.453125 915 939.847656 912.691406 942.695312 909.851562 C 945.546875 907 947.855469 903.609375 949.449219 899.839844 C 951.046875 896.078125 951.929688 891.941406 951.929688 887.609375 L 951.929688 540.511719 C 951.929688 536.160156 951.046875 532.03125 949.449219 528.261719 C 947.855469 524.488281 945.546875 521.101562 942.695312 518.25 C 939.847656 515.398438 936.453125 513.089844 932.6875 511.5 C 928.917969 509.898438 924.78125 509.019531 920.4375 509.019531 Z M 1091.230469 509.019531 C 1090.960938 509.019531 1090.691406 509.019531 1090.421875 509.03125 C 1090.148438 509.03125 1089.878906 509.039062 1089.609375 509.058594 C 1089.351562 509.070312 1089.078125 509.089844 1088.808594 509.109375 C 1088.550781 509.128906 1088.28125 509.148438 1088.019531 509.179688 C 1084.050781 509.578125 1080.300781 510.730469 1076.910156 512.460938 C 1073.511719 514.210938 1070.46875 516.550781 1067.929688 519.339844 C 1065.390625 522.140625 1063.339844 525.390625 1061.929688 528.96875 C 1060.519531 532.539062 1059.738281 536.441406 1059.738281 540.511719 L 1059.738281 887.609375 C 1059.738281 891.941406 1060.628906 896.078125 1062.21875 899.839844 C 1063.820312 903.609375 1066.121094 907 1068.96875 909.851562 C 1071.820312 912.691406 1075.21875 915 1078.980469 916.601562 C 1082.75 918.191406 1086.890625 919.070312 1091.230469 919.070312 L 1438.308594 919.070312 C 1442.648438 919.070312 1446.789062 918.191406 1450.558594 916.601562 C 1454.320312 915 1457.71875 912.691406 1460.570312 909.851562 C 1463.421875 907 1465.730469 903.609375 1467.320312 899.839844 C 1468.921875 896.078125 1469.800781 891.941406 1469.800781 887.609375 L 1469.800781 540.511719 C 1469.800781 536.160156 1468.921875 532.03125 1467.320312 528.261719 C 1465.730469 524.488281 1463.421875 521.101562 1460.570312 518.25 C 1457.71875 515.398438 1454.320312 513.089844 1450.558594 511.5 C 1446.789062 509.898438 1442.648438 509.019531 1438.308594 509.019531 Z M 1609.109375 510.910156 C 1604.761719 510.910156 1600.621094 511.789062 1596.859375 513.378906 C 1593.089844 514.980469 1589.691406 517.28125 1586.839844 520.140625 C 1584 522.988281 1581.691406 526.378906 1580.089844 530.148438 C 1578.5 533.910156 1577.609375 538.058594 1577.609375 542.398438 L 1577.609375 889.46875 C 1577.609375 893.820312 1578.5 897.949219 1580.089844 901.71875 C 1581.691406 905.488281 1584 908.878906 1586.839844 911.730469 C 1589.691406 914.578125 1593.089844 916.890625 1596.859375 918.480469 C 1600.621094 920.078125 1604.761719 920.960938 1609.109375 920.960938 L 1956.179688 920.960938 C 1960.519531 920.960938 1964.660156 920.078125 1968.429688 918.480469 C 1972.191406 916.890625 1975.589844 914.578125 1978.441406 911.730469 C 1981.289062 908.878906 1983.601562 905.488281 1985.191406 901.71875 C 1986.789062 897.949219 1987.671875 893.820312 1987.671875 889.46875 L 1987.671875 542.398438 C 1987.671875 538.058594 1986.789062 533.910156 1985.191406 530.148438 C 1983.601562 526.378906 1981.289062 522.988281 1978.441406 520.140625 C 1975.589844 517.28125 1972.191406 514.980469 1968.429688 513.378906 C 1964.660156 511.789062 1960.519531 510.910156 1956.179688 510.910156 Z M 2126.980469 511.851562 C 2122.628906 511.851562 2118.488281 512.730469 2114.730469 514.328125 C 2110.960938 515.921875 2107.570312 518.230469 2104.71875 521.078125 C 2101.859375 523.929688 2099.558594 527.320312 2097.960938 531.089844 C 2096.371094 534.851562 2095.480469 538.980469 2095.480469 543.320312 L 2095.480469 890.421875 C 2095.480469 894.761719 2096.371094 898.898438 2097.960938 902.660156 C 2099.558594 906.429688 2101.859375 909.820312 2104.71875 912.679688 C 2107.570312 915.53125 2110.960938 917.839844 2114.730469 919.429688 C 2118.488281 921.03125 2122.628906 921.910156 2126.980469 921.910156 L 2474.050781 921.910156 C 2478.390625 921.910156 2482.53125 921.03125 2486.300781 919.429688 C 2490.070312 917.839844 2493.460938 915.53125 2496.308594 912.679688 C 2499.160156 909.820312 2501.46875 906.429688 2503.058594 902.660156 C 2504.660156 898.898438 2505.539062 894.761719 2505.539062 890.421875 L 2505.539062 543.320312 C 2505.539062 538.980469 2504.660156 534.851562 2503.058594 531.089844 C 2501.46875 527.320312 2499.160156 523.929688 2496.308594 521.078125 C 2493.460938 518.230469 2490.070312 515.921875 2486.300781 514.328125 C 2482.53125 512.730469 2478.390625 511.851562 2474.050781 511.851562 Z M 2644.839844 512.769531 C 2640.5 512.769531 2636.359375 513.660156 2632.601562 515.25 C 2628.828125 516.851562 2625.441406 519.160156 2622.589844 522.011719 C 2619.730469 524.859375 2617.429688 528.261719 2615.828125 532.019531 C 2614.238281 535.789062 2613.359375 539.929688 2613.359375 544.261719 L 2613.359375 891.359375 C 2613.359375 895.699219 2614.238281 899.828125 2615.828125 903.601562 C 2617.429688 907.359375 2619.730469 910.75 2622.589844 913.601562 C 2625.441406 916.449219 2628.828125 918.761719 2632.601562 920.351562 C 2636.359375 921.941406 2640.5 922.828125 2644.839844 922.828125 L 2991.921875 922.828125 C 2996.269531 922.828125 3000.398438 921.941406 3004.171875 920.351562 C 3007.941406 918.761719 3011.328125 916.449219 3014.179688 913.601562 C 3017.03125 910.75 3019.339844 907.359375 3020.929688 903.601562 C 3022.53125 899.828125 3023.410156 895.699219 3023.410156 891.359375 L 3023.410156 544.261719 C 3023.410156 539.929688 3022.53125 535.789062 3020.929688 532.019531 C 3019.339844 528.261719 3017.03125 524.859375 3014.179688 522.011719 C 3011.328125 519.160156 3007.941406 516.851562 3004.171875 515.25 C 3000.398438 513.660156 2996.269531 512.769531 2991.921875 512.769531 Z M 55.492188 1016.191406 C 51.148438 1016.191406 47.007812 1017.070312 43.242188 1018.671875 C 39.476562 1020.261719 36.082031 1022.570312 33.230469 1025.421875 C 30.382812 1028.269531 28.074219 1031.660156 26.476562 1035.429688 C 24.882812 1039.191406 24 1043.320312 24 1047.660156 L 24 1394.761719 C 24 1399.101562 24.882812 1403.238281 26.476562 1407 C 28.074219 1410.769531 30.382812 1414.160156 33.230469 1417.019531 C 36.082031 1419.871094 39.476562 1422.179688 43.242188 1423.769531 C 47.007812 1425.371094 51.148438 1426.25 55.492188 1426.25 L 402.566406 1426.25 C 406.910156 1426.25 411.050781 1425.371094 414.816406 1423.769531 C 418.582031 1422.179688 421.976562 1419.871094 424.828125 1417.019531 C 427.675781 1414.160156 429.984375 1410.769531 431.582031 1407 C 433.175781 1403.238281 434.058594 1399.101562 434.058594 1394.761719 L 434.058594 1047.660156 C 434.058594 1043.320312 433.175781 1039.191406 431.582031 1035.429688 C 429.984375 1031.660156 427.675781 1028.269531 424.828125 1025.421875 C 421.976562 1022.570312 418.582031 1020.261719 414.816406 1018.671875 C 411.050781 1017.070312 406.910156 1016.191406 402.566406 1016.191406 Z M 573.363281 1017.109375 C 569.019531 1017.109375 564.878906 1017.988281 561.113281 1019.589844 C 557.347656 1021.179688 553.953125 1023.488281 551.101562 1026.339844 C 548.25 1029.191406 545.945312 1032.589844 544.347656 1036.359375 C 542.753906 1040.121094 541.871094 1044.261719 541.871094 1048.601562 L 541.871094 1395.699219 C 541.871094 1400.039062 542.753906 1404.171875 544.347656 1407.941406 C 545.945312 1411.699219 548.25 1415.089844 551.101562 1417.941406 C 553.953125 1420.789062 557.347656 1423.101562 561.113281 1424.691406 C 564.878906 1426.289062 569.019531 1427.171875 573.363281 1427.171875 L 920.4375 1427.171875 C 924.78125 1427.171875 928.917969 1426.289062 932.6875 1424.691406 C 936.453125 1423.101562 939.847656 1420.789062 942.695312 1417.941406 C 945.546875 1415.089844 947.855469 1411.699219 949.449219 1407.941406 C 951.046875 1404.171875 951.929688 1400.039062 951.929688 1395.699219 L 951.929688 1048.601562 C 951.929688 1044.261719 951.046875 1040.121094 949.449219 1036.359375 C 947.855469 1032.589844 945.546875 1029.191406 942.695312 1026.339844 C 939.847656 1023.488281 936.453125 1021.179688 932.6875 1019.589844 C 928.917969 1017.988281 924.78125 1017.109375 920.4375 1017.109375 Z M 1091.230469 1018.058594 C 1086.890625 1018.058594 1082.75 1018.941406 1078.980469 1020.53125 C 1075.21875 1022.128906 1071.820312 1024.441406 1068.96875 1027.289062 C 1066.121094 1030.140625 1063.820312 1033.53125 1062.21875 1037.300781 C 1060.628906 1041.070312 1059.738281 1045.199219 1059.738281 1049.550781 L 1059.738281 1396.621094 C 1059.738281 1400.960938 1060.628906 1405.109375 1062.21875 1408.871094 C 1063.820312 1412.640625 1066.121094 1416.03125 1068.96875 1418.878906 C 1071.820312 1421.730469 1075.21875 1424.039062 1078.980469 1425.640625 C 1082.75 1427.230469 1086.890625 1428.109375 1091.230469 1428.109375 L 1438.308594 1428.109375 C 1442.648438 1428.109375 1446.789062 1427.230469 1450.558594 1425.640625 C 1454.320312 1424.039062 1457.71875 1421.730469 1460.570312 1418.878906 C 1463.421875 1416.03125 1465.730469 1412.640625 1467.320312 1408.871094 C 1468.921875 1405.109375 1469.800781 1400.960938 1469.800781 1396.621094 L 1469.800781 1049.550781 C 1469.800781 1045.199219 1468.921875 1041.070312 1467.320312 1037.300781 C 1465.730469 1033.53125 1463.421875 1030.140625 1460.570312 1027.289062 C 1457.71875 1024.441406 1454.320312 1022.128906 1450.558594 1020.53125 C 1446.789062 1018.941406 1442.648438 1018.058594 1438.308594 1018.058594 Z M 1609.109375 1019 C 1604.761719 1019 1600.621094 1019.878906 1596.859375 1021.480469 C 1593.089844 1023.070312 1589.691406 1025.378906 1586.839844 1028.230469 C 1584 1031.078125 1581.691406 1034.480469 1580.089844 1038.238281 C 1578.5 1042.011719 1577.609375 1046.148438 1577.609375 1050.488281 L 1577.609375 1397.570312 C 1577.609375 1401.910156 1578.5 1406.050781 1580.089844 1409.820312 C 1581.691406 1413.578125 1584 1416.980469 1586.839844 1419.828125 C 1589.691406 1422.679688 1593.089844 1424.980469 1596.859375 1426.578125 C 1600.621094 1428.179688 1604.761719 1429.058594 1609.109375 1429.058594 L 1956.179688 1429.058594 C 1960.519531 1429.058594 1964.660156 1428.179688 1968.429688 1426.578125 C 1972.191406 1424.980469 1975.589844 1422.679688 1978.441406 1419.828125 C 1981.289062 1416.980469 1983.601562 1413.578125 1985.191406 1409.820312 C 1986.789062 1406.050781 1987.671875 1401.910156 1987.671875 1397.570312 L 1987.671875 1050.488281 C 1987.671875 1046.148438 1986.789062 1042.011719 1985.191406 1038.238281 C 1983.601562 1034.480469 1981.289062 1031.078125 1978.441406 1028.230469 C 1975.589844 1025.378906 1972.191406 1023.070312 1968.429688 1021.480469 C 1964.660156 1019.878906 1960.519531 1019 1956.179688 1019 Z M 2126.980469 1019.941406 C 2122.628906 1019.941406 2118.488281 1020.828125 2114.730469 1022.421875 C 2110.960938 1024.019531 2107.570312 1026.320312 2104.71875 1029.179688 C 2101.859375 1032.019531 2099.558594 1035.410156 2097.960938 1039.179688 C 2096.371094 1042.941406 2095.480469 1047.078125 2095.480469 1051.410156 L 2095.480469 1398.511719 C 2095.480469 1402.859375 2096.371094 1406.988281 2097.960938 1410.761719 C 2099.558594 1414.53125 2101.859375 1417.921875 2104.71875 1420.769531 C 2107.570312 1423.621094 2110.960938 1425.929688 2114.730469 1427.519531 C 2118.488281 1429.121094 2122.628906 1430 2126.980469 1430 L 2474.050781 1430 C 2478.390625 1430 2482.53125 1429.121094 2486.300781 1427.519531 C 2490.070312 1425.929688 2493.460938 1423.621094 2496.308594 1420.769531 C 2499.160156 1417.921875 2501.46875 1414.53125 2503.058594 1410.761719 C 2504.660156 1406.988281 2505.539062 1402.859375 2505.539062 1398.511719 L 2505.539062 1051.410156 C 2505.539062 1047.078125 2504.660156 1042.941406 2503.058594 1039.179688 C 2501.46875 1035.410156 2499.160156 1032.019531 2496.308594 1029.179688 C 2493.460938 1026.320312 2490.070312 1024.019531 2486.300781 1022.421875 C 2482.53125 1020.828125 2478.390625 1019.941406 2474.050781 1019.941406 Z M 2644.839844 1020.871094 C 2640.5 1020.871094 2636.359375 1021.75 2632.601562 1023.351562 C 2628.828125 1024.941406 2625.441406 1027.25 2622.589844 1030.109375 C 2619.730469 1032.960938 2617.429688 1036.359375 2615.828125 1040.121094 C 2614.238281 1043.890625 2613.359375 1048.019531 2613.359375 1052.359375 L 2613.359375 1399.460938 C 2613.359375 1403.789062 2614.238281 1407.929688 2615.828125 1411.691406 C 2617.429688 1415.449219 2619.730469 1418.839844 2622.589844 1421.691406 C 2625.441406 1424.539062 2628.828125 1426.851562 2632.601562 1428.441406 C 2636.359375 1430.039062 2640.5 1430.921875 2644.839844 1430.921875 L 2991.921875 1430.921875 C 2996.269531 1430.921875 3000.398438 1430.039062 3004.171875 1428.441406 C 3007.941406 1426.851562 3011.328125 1424.539062 3014.179688 1421.691406 C 3017.03125 1418.839844 3019.339844 1415.449219 3020.929688 1411.691406 C 3022.53125 1407.929688 3023.410156 1403.789062 3023.410156 1399.460938 L 3023.410156 1052.359375 C 3023.410156 1048.019531 3022.53125 1043.890625 3020.929688 1040.121094 C 3019.339844 1036.359375 3017.03125 1032.960938 3014.179688 1030.109375 C 3011.328125 1027.25 3007.941406 1024.941406 3004.171875 1023.351562 C 3000.398438 1021.75 2996.269531 1020.871094 2991.921875 1020.871094 Z M 55.492188 1524.285156 C 51.148438 1524.285156 47.007812 1525.167969 43.242188 1526.761719 C 39.476562 1528.359375 36.082031 1530.664062 33.230469 1533.515625 C 30.382812 1536.363281 28.074219 1539.753906 26.476562 1543.519531 C 24.882812 1547.28125 24 1551.417969 24 1555.753906 L 24 1902.851562 C 24 1907.195312 24.882812 1911.332031 26.476562 1915.097656 C 28.074219 1918.867188 30.382812 1922.257812 33.230469 1925.109375 C 36.082031 1927.960938 39.476562 1930.269531 43.242188 1931.863281 C 47.007812 1933.460938 51.148438 1934.34375 55.492188 1934.34375 L 402.566406 1934.34375 C 406.910156 1934.34375 411.050781 1933.460938 414.816406 1931.863281 C 418.582031 1930.269531 421.976562 1927.960938 424.828125 1925.109375 C 427.675781 1922.257812 429.984375 1918.867188 431.582031 1915.097656 C 433.175781 1911.332031 434.058594 1907.195312 434.058594 1902.851562 L 434.058594 1555.753906 C 434.058594 1551.417969 433.175781 1547.28125 431.582031 1543.519531 C 429.984375 1539.753906 427.675781 1536.363281 424.828125 1533.515625 C 421.976562 1530.664062 418.582031 1528.359375 414.816406 1526.761719 C 411.050781 1525.167969 406.910156 1524.285156 402.566406 1524.285156 Z M 573.363281 1525.207031 C 569.019531 1525.207031 564.878906 1526.089844 561.113281 1527.683594 C 557.347656 1529.28125 553.953125 1531.589844 551.101562 1534.4375 C 548.25 1537.289062 545.945312 1540.683594 544.347656 1544.449219 C 542.753906 1548.214844 541.871094 1552.355469 541.871094 1556.699219 L 541.871094 1903.796875 C 541.871094 1908.132812 542.753906 1912.269531 544.347656 1916.03125 C 545.945312 1919.792969 548.25 1923.1875 551.101562 1926.035156 C 553.953125 1928.886719 557.347656 1931.191406 561.113281 1932.789062 C 564.878906 1934.382812 569.019531 1935.265625 573.363281 1935.265625 L 920.4375 1935.265625 C 924.78125 1935.265625 928.917969 1934.382812 932.6875 1932.789062 C 936.453125 1931.191406 939.847656 1928.886719 942.695312 1926.035156 C 945.546875 1923.1875 947.855469 1919.792969 949.449219 1916.03125 C 951.046875 1912.269531 951.929688 1908.132812 951.929688 1903.796875 L 951.929688 1556.699219 C 951.929688 1552.355469 951.046875 1548.214844 949.449219 1544.449219 C 947.855469 1540.683594 945.546875 1537.289062 942.695312 1534.4375 C 939.847656 1531.589844 936.453125 1529.28125 932.6875 1527.683594 C 928.917969 1526.089844 924.78125 1525.207031 920.4375 1525.207031 Z M 1091.230469 1526.148438 C 1086.890625 1526.148438 1082.75 1527.03125 1078.980469 1528.628906 C 1075.21875 1530.222656 1071.820312 1532.53125 1068.96875 1535.382812 C 1066.121094 1538.234375 1063.820312 1541.628906 1062.21875 1545.394531 C 1060.628906 1549.160156 1059.738281 1553.300781 1059.738281 1557.644531 L 1059.738281 1904.71875 C 1059.738281 1909.058594 1060.628906 1913.199219 1062.21875 1916.964844 C 1063.820312 1920.730469 1066.121094 1924.125 1068.96875 1926.976562 C 1071.820312 1929.828125 1075.21875 1932.136719 1078.980469 1933.730469 C 1082.75 1935.328125 1086.890625 1936.210938 1091.230469 1936.210938 L 1438.308594 1936.210938 C 1442.648438 1936.210938 1446.789062 1935.328125 1450.558594 1933.730469 C 1454.320312 1932.136719 1457.71875 1929.828125 1460.570312 1926.976562 C 1463.421875 1924.125 1465.730469 1920.730469 1467.320312 1916.964844 C 1468.921875 1913.199219 1469.800781 1909.058594 1469.800781 1904.71875 L 1469.800781 1557.644531 C 1469.800781 1553.300781 1468.921875 1549.160156 1467.320312 1545.394531 C 1465.730469 1541.628906 1463.421875 1538.234375 1460.570312 1535.382812 C 1457.71875 1532.53125 1454.320312 1530.222656 1450.558594 1528.628906 C 1446.789062 1527.03125 1442.648438 1526.148438 1438.308594 1526.148438 Z M 1609.109375 1527.09375 C 1604.761719 1527.09375 1600.621094 1527.976562 1596.859375 1529.574219 C 1593.089844 1531.167969 1589.691406 1533.476562 1586.839844 1536.328125 C 1584 1539.179688 1581.691406 1542.570312 1580.089844 1546.339844 C 1578.5 1550.105469 1577.609375 1554.242188 1577.609375 1558.585938 L 1577.609375 1905.660156 C 1577.609375 1910.003906 1578.5 1914.144531 1580.089844 1917.910156 C 1581.691406 1921.675781 1584 1925.070312 1586.839844 1927.921875 C 1589.691406 1930.773438 1593.089844 1933.082031 1596.859375 1934.675781 C 1600.621094 1936.269531 1604.761719 1937.152344 1609.109375 1937.152344 L 1956.179688 1937.152344 C 1960.519531 1937.152344 1964.660156 1936.269531 1968.429688 1934.675781 C 1972.191406 1933.082031 1975.589844 1930.773438 1978.441406 1927.921875 C 1981.289062 1925.070312 1983.601562 1921.675781 1985.191406 1917.910156 C 1986.789062 1914.144531 1987.671875 1910.003906 1987.671875 1905.660156 L 1987.671875 1558.585938 C 1987.671875 1554.242188 1986.789062 1550.105469 1985.191406 1546.339844 C 1983.601562 1542.570312 1981.289062 1539.179688 1978.441406 1536.328125 C 1975.589844 1533.476562 1972.191406 1531.167969 1968.429688 1529.574219 C 1964.660156 1527.976562 1960.519531 1527.09375 1956.179688 1527.09375 Z M 2126.980469 1528.039062 C 2122.628906 1528.039062 2118.488281 1528.921875 2114.730469 1530.515625 C 2110.960938 1532.113281 2107.570312 1534.417969 2104.71875 1537.269531 C 2101.859375 1540.117188 2099.558594 1543.507812 2097.960938 1547.273438 C 2096.371094 1551.035156 2095.480469 1555.171875 2095.480469 1559.507812 L 2095.480469 1906.605469 C 2095.480469 1910.949219 2096.371094 1915.089844 2097.960938 1918.855469 C 2099.558594 1922.621094 2101.859375 1926.015625 2104.71875 1928.867188 C 2107.570312 1931.71875 2110.960938 1934.023438 2114.730469 1935.621094 C 2118.488281 1937.214844 2122.628906 1938.097656 2126.980469 1938.097656 L 2474.050781 1938.097656 C 2478.390625 1938.097656 2482.53125 1937.214844 2486.300781 1935.621094 C 2490.070312 1934.023438 2493.460938 1931.71875 2496.308594 1928.867188 C 2499.160156 1926.015625 2501.46875 1922.621094 2503.058594 1918.855469 C 2504.660156 1915.089844 2505.539062 1910.949219 2505.539062 1906.605469 L 2505.539062 1559.507812 C 2505.539062 1555.171875 2504.660156 1551.035156 2503.058594 1547.273438 C 2501.46875 1543.507812 2499.160156 1540.117188 2496.308594 1537.269531 C 2493.460938 1534.417969 2490.070312 1532.113281 2486.300781 1530.515625 C 2482.53125 1528.921875 2478.390625 1528.039062 2474.050781 1528.039062 Z M 2644.839844 1528.960938 C 2640.5 1528.960938 2636.359375 1529.84375 2632.601562 1531.441406 C 2628.828125 1533.039062 2625.441406 1535.351562 2622.589844 1538.203125 C 2619.730469 1541.054688 2617.429688 1544.449219 2615.828125 1548.214844 C 2614.238281 1551.980469 2613.359375 1556.117188 2613.359375 1560.453125 L 2613.359375 1907.550781 C 2613.359375 1911.886719 2614.238281 1916.023438 2615.828125 1919.785156 C 2617.429688 1923.550781 2619.730469 1926.941406 2622.589844 1929.789062 C 2625.441406 1932.640625 2628.828125 1934.945312 2632.601562 1936.542969 C 2636.359375 1938.136719 2640.5 1939.019531 2644.839844 1939.019531 L 2991.921875 1939.019531 C 2996.269531 1939.019531 3000.398438 1938.136719 3004.171875 1936.542969 C 3007.941406 1934.945312 3011.328125 1932.640625 3014.179688 1929.789062 C 3017.03125 1926.941406 3019.339844 1923.550781 3020.929688 1919.785156 C 3022.53125 1916.023438 3023.410156 1911.886719 3023.410156 1907.550781 L 3023.410156 1560.453125 C 3023.410156 1556.117188 3022.53125 1551.980469 3020.929688 1548.214844 C 3019.339844 1544.449219 3017.03125 1541.054688 3014.179688 1538.203125 C 3011.328125 1535.351562 3007.941406 1533.039062 3004.171875 1531.441406 C 3000.398438 1529.84375 2996.269531 1528.960938 2991.921875 1528.960938 Z M 55.492188 2034.246094 C 51.148438 2034.246094 47.007812 2035.128906 43.242188 2036.722656 C 39.476562 2038.320312 36.082031 2040.628906 33.230469 2043.476562 C 30.382812 2046.328125 28.074219 2049.722656 26.476562 2053.488281 C 24.882812 2057.253906 24 2061.394531 24 2065.738281 L 24 2412.8125 C 24 2417.15625 24.882812 2421.292969 26.476562 2425.0625 C 28.074219 2428.828125 30.382812 2432.222656 33.230469 2435.070312 C 36.082031 2437.921875 39.476562 2440.230469 43.242188 2441.828125 C 47.007812 2443.421875 51.148438 2444.304688 55.492188 2444.304688 L 402.566406 2444.304688 C 406.910156 2444.304688 411.050781 2443.421875 414.816406 2441.828125 C 418.582031 2440.230469 421.976562 2437.921875 424.828125 2435.070312 C 427.675781 2432.222656 429.984375 2428.828125 431.582031 2425.0625 C 433.175781 2421.292969 434.058594 2417.15625 434.058594 2412.8125 L 434.058594 2065.738281 C 434.058594 2061.394531 433.175781 2057.253906 431.582031 2053.488281 C 429.984375 2049.722656 427.675781 2046.328125 424.828125 2043.476562 C 421.976562 2040.628906 418.582031 2038.320312 414.816406 2036.722656 C 411.050781 2035.128906 406.910156 2034.246094 402.566406 2034.246094 Z M 2644.839844 2035.605469 C 2640.5 2035.605469 2636.359375 2036.488281 2632.601562 2038.082031 C 2628.828125 2039.679688 2625.441406 2041.988281 2622.589844 2044.835938 C 2619.730469 2047.6875 2617.429688 2051.082031 2615.828125 2054.847656 C 2614.238281 2058.613281 2613.359375 2062.753906 2613.359375 2067.097656 L 2613.359375 2414.195312 C 2613.359375 2418.53125 2614.238281 2422.667969 2615.828125 2426.429688 C 2617.429688 2430.191406 2619.730469 2433.585938 2622.589844 2436.433594 C 2625.441406 2439.285156 2628.828125 2441.589844 2632.601562 2443.1875 C 2636.359375 2444.78125 2640.5 2445.664062 2644.839844 2445.664062 L 2991.921875 2445.664062 C 2996.269531 2445.664062 3000.398438 2444.78125 3004.171875 2443.1875 C 3007.941406 2441.589844 3011.328125 2439.285156 3014.179688 2436.433594 C 3017.03125 2433.585938 3019.339844 2430.191406 3020.929688 2426.429688 C 3022.53125 2422.667969 3023.410156 2418.53125 3023.410156 2414.195312 L 3023.410156 2067.097656 C 3023.410156 2062.753906 3022.53125 2058.613281 3020.929688 2054.847656 C 3019.339844 2051.082031 3017.03125 2047.6875 3014.179688 2044.835938 C 3011.328125 2041.988281 3007.941406 2039.679688 3004.171875 2038.082031 C 3000.398438 2036.488281 2996.269531 2035.605469 2991.921875 2035.605469 Z M 2644.839844 2035.605469 "/>
<path fill-rule="nonzero" fill="rgb(14.501953%, 14.501953%, 14.501953%)" fill-opacity="1" d="M 1268.640625 95.460938 C 1256.839844 95.460938 1246.160156 97.859375 1236.550781 102.628906 C 1226.941406 107.421875 1218.789062 114.359375 1212.058594 123.480469 C 1205.339844 132.601562 1200.21875 143.679688 1196.691406 156.738281 C 1193.191406 169.808594 1191.441406 184.128906 1191.441406 199.730469 C 1191.441406 215.808594 1193.148438 230.140625 1196.558594 242.71875 C 1199.96875 255.300781 1205.039062 266.101562 1211.761719 275.109375 C 1218.488281 284.140625 1226.601562 290.960938 1236.109375 295.589844 C 1245.609375 300.21875 1256.269531 302.539062 1268.070312 302.539062 C 1280.25 302.539062 1291.21875 299.960938 1300.960938 294.851562 C 1310.710938 289.730469 1318.789062 282.390625 1325.238281 272.78125 C 1331.671875 263.171875 1336.050781 251.890625 1338.398438 238.921875 L 1311.191406 233.941406 C 1309.828125 242.929688 1307.160156 250.960938 1303.148438 258.078125 C 1299.160156 265.199219 1294.191406 270.640625 1288.25 274.390625 C 1282.300781 278.148438 1275.851562 280.011719 1268.941406 280.011719 C 1236.570312 280.011719 1220.378906 252.480469 1220.378906 197.398438 C 1220.378906 181.121094 1222.308594 167 1226.160156 155.058594 C 1230.011719 143.128906 1235.648438 133.960938 1243.050781 127.578125 C 1250.460938 121.179688 1259.078125 118 1268.941406 118 C 1275.960938 118 1282.191406 119.699219 1287.648438 123.109375 C 1293.109375 126.519531 1297.671875 131.46875 1301.328125 137.941406 C 1304.988281 144.441406 1307.691406 152.460938 1309.441406 162 L 1336.640625 156.609375 C 1332.25 136.519531 1324.25 121.308594 1312.660156 110.96875 C 1301.058594 100.648438 1286.378906 95.460938 1268.640625 95.460938 Z M 211.011719 97.238281 L 152.386719 296.988281 L 180.167969 296.988281 L 196.984375 238.359375 L 260.75 238.359375 L 276.394531 296.988281 L 305.625 296.988281 L 249.625 97.238281 Z M 685.992188 98.179688 L 685.992188 297.941406 L 755.171875 297.941406 C 768.992188 297.941406 780.601562 295.839844 789.953125 291.648438 C 799.332031 287.460938 806.382812 281.191406 811.171875 272.851562 C 815.941406 264.53125 818.335938 254.421875 818.335938 242.511719 C 818.335938 229.449219 815.390625 218.898438 809.492188 210.859375 C 803.59375 202.820312 794.355469 196.898438 781.777344 193.089844 C 803.316406 186.460938 814.097656 172 814.097656 149.671875 C 814.097656 140.988281 812.027344 132.648438 807.878906 124.648438 C 803.730469 116.660156 798.203125 110.621094 791.269531 106.519531 C 786.015625 103.410156 780.1875 101.230469 773.804688 100.03125 C 767.425781 98.808594 758.375 98.179688 746.671875 98.179688 Z M 1717.421875 100.070312 L 1717.421875 299.820312 L 1765.519531 299.820312 C 1789.898438 299.820312 1808.28125 296.019531 1820.648438 288.398438 C 1832.839844 281.101562 1842.238281 269.761719 1848.808594 254.421875 C 1855.390625 239.058594 1858.691406 220.859375 1858.691406 199.800781 C 1858.691406 179.53125 1855.558594 161.859375 1849.328125 146.789062 C 1843.089844 131.730469 1834.109375 120.339844 1822.429688 112.648438 C 1815.308594 107.769531 1807.058594 104.449219 1797.710938 102.699219 C 1788.359375 100.949219 1774.949219 100.070312 1757.480469 100.070312 Z M 2245.75 101 L 2245.75 300.75 L 2366.980469 300.75 L 2366.980469 276.488281 L 2274.109375 276.488281 L 2274.109375 208.78125 L 2342.421875 208.78125 L 2342.421875 184.5 L 2274.109375 184.5 L 2274.109375 124.398438 L 2362.441406 124.398438 L 2362.441406 101 Z M 2769.75 101.941406 L 2769.75 301.691406 L 2798.128906 301.691406 L 2798.128906 209.429688 L 2862.179688 209.429688 L 2862.179688 185.730469 L 2798.128906 185.730469 L 2798.128906 123.730469 L 2881.621094 123.730469 L 2881.621094 101.941406 Z M 229.304688 116.980469 C 229.972656 120.691406 231.289062 126.398438 233.246094 134.101562 L 255.039062 216.429688 L 202.699219 216.429688 L 225.503906 134.101562 C 225.894531 133.019531 226.21875 131.839844 226.519531 130.5 C 226.816406 129.191406 227.046875 128.289062 227.253906 127.808594 C 228.128906 124.210938 228.820312 120.601562 229.304688 116.980469 Z M 714.371094 119.980469 L 739.804688 119.980469 C 743.699219 119.980469 748.464844 120.179688 754.066406 120.640625 C 759.664062 121.078125 763.300781 121.5 764.960938 121.871094 C 771.203125 123.429688 776.042969 126.660156 779.519531 131.519531 C 782.976562 136.398438 784.703125 142.441406 784.703125 149.671875 C 784.703125 157.761719 783.207031 164.160156 780.234375 168.878906 C 777.261719 173.628906 772.308594 177.039062 765.398438 179.140625 C 758.464844 181.230469 749.457031 182.269531 738.351562 182.269531 L 714.371094 182.269531 Z M 1745.78125 121.871094 L 1761.71875 121.871094 C 1778.191406 121.871094 1791.390625 124.421875 1801.28125 129.539062 C 1811.179688 134.648438 1818.390625 142.78125 1822.929688 153.960938 C 1827.46875 165.109375 1829.730469 180.109375 1829.730469 198.929688 C 1829.730469 213.339844 1828.480469 225.601562 1826 235.691406 C 1823.511719 245.78125 1819.640625 253.890625 1814.359375 260.039062 C 1809.109375 266.191406 1802.179688 270.679688 1793.609375 273.558594 C 1785.039062 276.441406 1774.390625 277.871094 1761.71875 277.871094 L 1745.78125 277.871094 Z M 714.371094 204.199219 L 734.988281 204.199219 C 751.160156 204.199219 763.050781 205.71875 770.652344 208.738281 C 776.316406 210.878906 780.878906 215.050781 784.335938 221.25 C 787.789062 227.441406 789.519531 234.429688 789.519531 242.230469 C 789.519531 248.570312 788.390625 254.210938 786.085938 259.191406 C 783.804688 264.160156 780.554688 268.011719 776.363281 270.730469 C 772.863281 272.898438 769.039062 274.300781 764.890625 274.96875 C 760.746094 275.660156 754.179688 276.011719 745.21875 276.011719 L 714.371094 276.011719 Z M 367.320312 292.621094 C 365.617188 296.019531 362.734375 299.550781 358.679688 303.191406 C 354.601562 306.828125 349.859375 309.910156 344.421875 312.46875 L 344.421875 321.871094 C 347.441406 320.738281 350.847656 319.089844 354.648438 316.851562 C 358.449219 314.621094 361.515625 312.378906 363.863281 310.148438 L 363.863281 372.089844 L 373.5625 372.089844 L 373.5625 292.621094 Z M 879.683594 293.539062 C 873.417969 293.539062 868.167969 295.328125 863.972656 298.910156 C 859.757812 302.5 857.0625 307.539062 855.863281 314.058594 L 865.585938 315.789062 C 866.300781 311.050781 867.914062 307.480469 870.445312 305.101562 C 872.957031 302.730469 876.113281 301.53125 879.890625 301.53125 C 883.714844 301.53125 886.828125 302.710938 889.222656 305.058594 C 891.640625 307.378906 892.839844 310.328125 892.839844 313.898438 C 892.839844 318.390625 891.203125 321.730469 887.886719 323.871094 C 884.570312 326.039062 880.835938 327.121094 876.714844 327.121094 C 876.296875 327.121094 875.792969 327.101562 875.148438 327.011719 L 874.0625 335.558594 C 876.804688 334.820312 879.085938 334.46875 880.90625 334.46875 C 885.421875 334.46875 889.128906 335.929688 892.03125 338.828125 C 894.957031 341.710938 896.410156 345.390625 896.410156 349.859375 C 896.410156 354.539062 894.84375 358.460938 891.6875 361.628906 C 888.53125 364.789062 884.683594 366.378906 880.101562 366.378906 C 876.253906 366.378906 872.980469 365.160156 870.308594 362.738281 C 867.636719 360.300781 865.726562 356.339844 864.621094 350.828125 L 854.898438 352.121094 C 855.542969 358.710938 858.167969 364.078125 862.75 368.21875 C 867.335938 372.351562 873.097656 374.421875 880.054688 374.421875 C 887.746094 374.421875 894.128906 372.019531 899.175781 367.210938 C 904.195312 362.421875 906.730469 356.539062 906.730469 349.628906 C 906.730469 344.539062 905.441406 340.28125 902.835938 336.871094 C 900.257812 333.460938 896.617188 331.230469 891.941406 330.140625 C 895.535156 328.480469 898.25 326.269531 900.070312 323.460938 C 901.914062 320.648438 902.835938 317.539062 902.835938 314.109375 C 902.835938 310.519531 901.871094 307.109375 899.957031 303.898438 C 898.023438 300.699219 895.234375 298.171875 891.617188 296.320312 C 887.976562 294.480469 883.992188 293.539062 879.683594 293.539062 Z M 1397.558594 294.480469 C 1391.289062 294.480469 1386.039062 296.28125 1381.839844 299.851562 C 1377.628906 303.441406 1374.929688 308.488281 1373.730469 315.011719 L 1383.460938 316.730469 C 1384.171875 311.96875 1385.789062 308.421875 1388.320312 306.050781 C 1390.828125 303.648438 1393.980469 302.480469 1397.769531 302.480469 C 1401.589844 302.480469 1404.699219 303.648438 1407.089844 305.980469 C 1409.511719 308.328125 1410.710938 311.28125 1410.710938 314.851562 C 1410.710938 319.339844 1409.070312 322.660156 1405.761719 324.820312 C 1402.441406 326.988281 1398.710938 328.070312 1394.578125 328.070312 C 1394.171875 328.070312 1393.660156 328.019531 1393.019531 327.949219 L 1391.929688 336.480469 C 1394.679688 335.761719 1396.960938 335.421875 1398.78125 335.421875 C 1403.289062 335.421875 1407 336.871094 1409.898438 339.75 C 1412.828125 342.648438 1414.28125 346.339844 1414.28125 350.808594 C 1414.28125 355.480469 1412.710938 359.398438 1409.558594 362.578125 C 1406.398438 365.730469 1402.558594 367.320312 1397.96875 367.320312 C 1394.128906 367.320312 1390.851562 366.101562 1388.179688 363.679688 C 1385.511719 361.238281 1383.601562 357.28125 1382.488281 351.769531 L 1372.769531 353.070312 C 1373.410156 359.648438 1376.039062 365.019531 1380.628906 369.140625 C 1385.210938 373.289062 1390.960938 375.359375 1397.921875 375.359375 C 1405.621094 375.359375 1412 372.96875 1417.050781 368.148438 C 1422.070312 363.359375 1424.601562 357.488281 1424.601562 350.578125 C 1424.601562 345.460938 1423.308594 341.21875 1420.710938 337.808594 C 1418.128906 334.398438 1414.488281 332.171875 1409.808594 331.089844 C 1413.410156 329.429688 1416.128906 327.191406 1417.96875 324.378906 C 1419.789062 321.601562 1420.710938 318.460938 1420.710938 315.058594 C 1420.710938 311.460938 1419.738281 308.050781 1417.828125 304.851562 C 1415.890625 301.640625 1413.109375 299.109375 1409.488281 297.269531 C 1405.851562 295.398438 1401.859375 294.480469 1397.558594 294.480469 Z M 1916.878906 295.429688 C 1909.339844 295.429688 1903.359375 297.378906 1898.890625 301.28125 C 1894.441406 305.191406 1891.859375 310.859375 1891.171875 318.320312 L 1901.171875 319.339844 C 1901.191406 314.359375 1902.621094 310.488281 1905.429688 307.679688 C 1908.238281 304.871094 1911.96875 303.460938 1916.648438 303.460938 C 1921.089844 303.460938 1924.691406 304.78125 1927.429688 307.429688 C 1930.191406 310.078125 1931.558594 313.320312 1931.558594 317.171875 C 1931.558594 320.859375 1930.058594 324.75 1927.019531 328.871094 C 1924 333 1918.191406 338.570312 1909.570312 345.648438 C 1904.050781 350.160156 1899.808594 354.171875 1896.859375 357.621094 C 1893.929688 361.078125 1891.808594 364.578125 1890.480469 368.148438 C 1889.648438 370.320312 1889.261719 372.558594 1889.351562 374.898438 L 1941.660156 374.898438 L 1941.660156 365.550781 L 1902.820312 365.550781 C 1903.910156 363.800781 1905.289062 362.050781 1906.949219 360.300781 C 1908.589844 358.550781 1912.339844 355.230469 1918.171875 350.320312 C 1925.148438 344.429688 1930.148438 339.800781 1933.140625 336.410156 C 1936.160156 333.019531 1938.300781 329.800781 1939.621094 326.730469 C 1940.910156 323.671875 1941.550781 320.558594 1941.550781 317.398438 C 1941.550781 311.160156 1939.339844 305.949219 1934.921875 301.738281 C 1930.46875 297.519531 1924.480469 295.429688 1916.878906 295.429688 Z M 2438.808594 296.371094 C 2437.101562 299.78125 2434.21875 303.308594 2430.160156 306.941406 C 2426.089844 310.589844 2421.339844 313.671875 2415.910156 316.230469 L 2415.910156 325.628906 C 2418.921875 324.5 2422.328125 322.839844 2426.128906 320.609375 C 2429.929688 318.371094 2433 316.140625 2435.351562 313.898438 L 2435.351562 375.851562 L 2445.050781 375.851562 L 2445.050781 296.371094 Z M 2959.25 297.609375 L 2923.128906 348.921875 L 2923.128906 357.828125 L 2957.480469 357.828125 L 2957.480469 376.769531 L 2967.199219 376.769531 L 2967.199219 357.828125 L 2977.890625 357.828125 L 2977.890625 348.921875 L 2967.199219 348.921875 L 2967.199219 297.609375 Z M 2957.480469 313.230469 L 2957.480469 348.921875 L 2932.691406 348.921875 Z M 233.636719 601.691406 C 217.949219 601.691406 204.171875 605.960938 192.332031 614.480469 C 180.492188 623 171.390625 635.308594 165.054688 651.339844 C 158.722656 667.371094 155.542969 685.871094 155.542969 706.839844 C 155.542969 721.828125 157.292969 735.699219 160.816406 748.441406 C 164.320312 761.160156 169.410156 772.03125 176.089844 781.03125 C 182.769531 790.070312 190.789062 796.929688 200.140625 801.660156 C 209.515625 806.378906 219.882812 808.75 231.289062 808.75 C 242.414062 808.75 251.628906 806.820312 258.929688 802.96875 C 266.234375 799.121094 272.570312 792.941406 277.9375 784.46875 L 277.9375 805.089844 L 299.867188 805.089844 L 299.867188 708.71875 L 233.335938 708.71875 L 233.335938 730.519531 L 274.136719 730.519531 L 274.136719 735.328125 C 274.136719 752.011719 270.773438 764.660156 264.046875 773.300781 C 257.320312 781.910156 247.390625 786.21875 234.210938 786.21875 C 223.292969 786.21875 214.125 783.089844 206.730469 776.800781 C 199.3125 770.511719 193.757812 761.109375 190.050781 748.578125 C 186.339844 736.050781 184.5 720.679688 184.5 702.429688 C 184.5 691.03125 185.648438 680.429688 187.929688 670.640625 C 190.234375 660.828125 193.597656 652.441406 198.019531 645.488281 C 202.46875 638.511719 207.742188 633.230469 213.894531 629.609375 C 220.042969 626.019531 226.816406 624.199219 234.210938 624.199219 C 245.039062 624.199219 253.746094 627.859375 260.3125 635.171875 C 266.902344 642.488281 271.507812 653.410156 274.136719 667.929688 L 299.867188 662.808594 C 297.839844 649.929688 293.921875 638.941406 288.1875 629.839844 C 282.429688 620.71875 274.871094 613.738281 265.519531 608.929688 C 256.144531 604.089844 245.523438 601.691406 233.636719 601.691406 Z M 677.511719 606.28125 L 677.511719 806.03125 L 705.871094 806.03125 L 705.871094 711.121094 L 787.90625 711.121094 L 787.90625 806.03125 L 816.425781 806.03125 L 816.425781 606.28125 L 787.90625 606.28125 L 787.90625 689.191406 L 705.871094 689.191406 L 705.871094 606.28125 Z M 1250.441406 806.03125 L 1278.800781 806.03125 L 1278.800781 606.277344 L 1250.441406 606.277344 Z M 1796.03125 608.171875 L 1796.03125 737.289062 C 1796.03125 748.601562 1795.980469 755.558594 1795.859375 758.179688 C 1795.769531 760.929688 1795.339844 764.238281 1794.550781 768.140625 C 1793.398438 773.890625 1790.699219 778.570312 1786.511719 782.171875 C 1782.320312 785.78125 1777.5 787.578125 1772.039062 787.578125 C 1766.191406 787.578125 1761.558594 786.058594 1758.148438 782.96875 C 1754.75 779.910156 1751.46875 774.429688 1748.339844 766.519531 L 1723.210938 775.601562 C 1726.320312 786.699219 1732.140625 795.480469 1740.671875 801.910156 C 1749.191406 808.359375 1759.378906 811.558594 1771.171875 811.558594 C 1790.269531 811.558594 1804.730469 803.960938 1814.589844 788.75 C 1818.191406 783.5 1820.75 777.328125 1822.191406 770.25 C 1823.671875 763.179688 1824.390625 753.558594 1824.390625 741.371094 L 1824.390625 608.171875 Z M 2240.109375 609.089844 L 2240.109375 808.839844 L 2268.488281 808.839844 L 2268.488281 744.5 L 2296.710938 708.539062 L 2349.351562 808.839844 L 2380.5 808.839844 L 2314.269531 685.128906 L 2372.160156 609.089844 L 2341.609375 609.089844 L 2268.488281 707.070312 L 2268.488281 609.089844 Z M 2772.46875 610.03125 L 2772.46875 809.789062 L 2885.070312 809.789062 L 2885.070312 785.230469 L 2800.828125 785.230469 L 2800.828125 610.03125 Z M 363.265625 800.710938 C 355.730469 800.710938 349.742188 802.640625 345.273438 806.558594 C 340.828125 810.460938 338.246094 816.140625 337.554688 823.589844 L 347.554688 824.621094 C 347.578125 819.648438 349.007812 815.75 351.816406 812.960938 C 354.625 810.160156 358.359375 808.75 363.035156 808.75 C 367.480469 808.75 371.050781 810.058594 373.816406 812.710938 C 376.582031 815.359375 377.941406 818.609375 377.941406 822.460938 C 377.941406 826.121094 376.441406 830.03125 373.402344 834.140625 C 370.382812 838.261719 364.578125 843.859375 355.960938 850.910156 C 350.433594 855.441406 346.195312 859.449219 343.246094 862.910156 C 340.320312 866.371094 338.199219 869.871094 336.863281 873.441406 C 336.035156 875.578125 335.644531 877.839844 335.738281 880.191406 L 388.054688 880.191406 L 388.054688 870.839844 L 349.210938 870.839844 C 350.296875 869.058594 351.679688 867.308594 353.335938 865.578125 C 354.972656 863.828125 358.726562 860.519531 364.554688 855.609375 C 371.535156 849.710938 376.535156 845.058594 379.527344 841.671875 C 382.546875 838.308594 384.6875 835.078125 386.003906 832.019531 C 387.292969 828.949219 387.9375 825.839844 387.9375 822.660156 C 387.9375 816.441406 385.726562 811.238281 381.304688 807.019531 C 376.855469 802.808594 370.867188 800.710938 363.265625 800.710938 Z M 1403.058594 801.628906 C 1401.359375 805.070312 1398.480469 808.589844 1394.421875 812.230469 C 1390.339844 815.851562 1385.601562 818.960938 1380.160156 821.511719 L 1380.160156 830.910156 C 1383.179688 829.78125 1386.589844 828.121094 1390.390625 825.890625 C 1394.191406 823.660156 1397.261719 821.421875 1399.609375 819.191406 L 1399.609375 881.109375 L 1409.328125 881.109375 L 1409.328125 801.628906 Z M 887.769531 801.949219 L 851.648438 853.261719 L 851.648438 862.171875 L 885.996094 862.171875 L 885.996094 881.109375 L 895.71875 881.109375 L 895.71875 862.171875 L 906.410156 862.171875 L 906.410156 853.261719 L 895.71875 853.261719 L 895.71875 801.949219 Z M 1916.390625 803.519531 C 1909.511719 803.519531 1904 805.480469 1899.878906 809.390625 C 1895.730469 813.339844 1893.660156 818.171875 1893.660156 823.929688 C 1893.660156 827.730469 1894.628906 831.03125 1896.578125 833.75 C 1898.519531 836.488281 1901.511719 838.578125 1905.539062 840.078125 C 1900.710938 841.320312 1897 843.699219 1894.390625 847.179688 C 1891.769531 850.660156 1890.480469 854.960938 1890.480469 860.101562 C 1890.480469 867.011719 1892.878906 872.769531 1897.640625 877.398438 C 1902.429688 882.03125 1908.75 884.339844 1916.558594 884.339844 C 1924.371094 884.339844 1930.660156 882.03125 1935.441406 877.421875 C 1940.238281 872.820312 1942.628906 867.148438 1942.628906 860.371094 C 1942.628906 855.46875 1941.371094 851.25 1938.828125 847.730469 C 1936.28125 844.199219 1932.589844 841.648438 1927.730469 840.078125 C 1931.640625 838.578125 1934.570312 836.488281 1936.5 833.789062 C 1938.421875 831.070312 1939.390625 827.871094 1939.390625 824.179688 C 1939.390625 818.429688 1937.289062 813.539062 1933.070312 809.53125 C 1928.859375 805.53125 1923.308594 803.519531 1916.390625 803.519531 Z M 2956.679688 805.390625 C 2954.96875 808.820312 2952.089844 812.339844 2948.039062 815.980469 C 2943.960938 819.621094 2939.210938 822.710938 2933.78125 825.269531 L 2933.78125 834.671875 C 2936.789062 833.539062 2940.199219 831.878906 2944 829.640625 C 2947.808594 827.410156 2950.871094 825.179688 2953.21875 822.941406 L 2953.21875 884.859375 L 2962.941406 884.859375 L 2962.941406 805.390625 Z M 2417.839844 805.871094 L 2410.171875 846.511719 L 2419.308594 847.710938 C 2420.738281 845.449219 2422.71875 843.578125 2425.230469 842.179688 C 2427.769531 840.75 2430.578125 840.03125 2433.71875 840.03125 C 2438.761719 840.03125 2442.839844 841.648438 2445.949219 844.851562 C 2449.058594 848.050781 2450.621094 852.429688 2450.621094 857.960938 C 2450.621094 863.78125 2449.011719 868.480469 2445.761719 872.011719 C 2442.511719 875.53125 2438.550781 877.28125 2433.878906 877.28125 C 2430 877.28125 2426.660156 876.039062 2423.921875 873.53125 C 2421.160156 871.039062 2419.410156 867.308594 2418.640625 862.339844 L 2408.441406 863.210938 C 2409.109375 869.871094 2411.691406 875.210938 2416.25 879.238281 C 2420.808594 883.269531 2426.691406 885.28125 2433.878906 885.28125 C 2442.679688 885.28125 2449.589844 882.078125 2454.679688 875.671875 C 2458.851562 870.441406 2460.941406 864.269531 2460.941406 857.109375 C 2460.941406 849.570312 2458.550781 843.421875 2453.800781 838.628906 C 2449.058594 833.839844 2443.230469 831.441406 2436.320312 831.441406 C 2431.089844 831.441406 2426.109375 833.101562 2421.359375 836.421875 L 2425.628906 815.160156 L 2457.210938 815.160156 L 2457.210938 805.871094 Z M 1916.488281 811.519531 C 1920.171875 811.519531 1923.230469 812.710938 1925.699219 815.160156 C 1928.171875 817.570312 1929.410156 820.570312 1929.410156 824.140625 C 1929.410156 827.570312 1928.210938 830.449219 1925.820312 832.800781 C 1923.421875 835.171875 1920.359375 836.351562 1916.601562 836.351562 C 1912.75 836.351562 1909.621094 835.148438 1907.199219 832.78125 C 1904.808594 830.410156 1903.589844 827.339844 1903.589844 823.609375 C 1903.589844 820.289062 1904.808594 817.460938 1907.269531 815.058594 C 1909.71875 812.691406 1912.78125 811.519531 1916.488281 811.519531 Z M 885.996094 817.570312 L 885.996094 853.261719 L 861.210938 853.261719 Z M 1916.320312 844.269531 C 1921.019531 844.269531 1924.921875 845.820312 1928.03125 848.878906 C 1931.140625 851.921875 1932.699219 855.789062 1932.699219 860.46875 C 1932.699219 865.070312 1931.179688 868.878906 1928.171875 871.871094 C 1925.128906 874.871094 1921.300781 876.359375 1916.648438 876.359375 C 1913.679688 876.359375 1910.890625 875.648438 1908.289062 874.21875 C 1905.710938 872.789062 1903.75 870.789062 1902.429688 868.210938 C 1901.121094 865.609375 1900.449219 862.929688 1900.449219 860.140625 C 1900.449219 855.628906 1901.96875 851.828125 1904.96875 848.808594 C 1907.96875 845.789062 1911.761719 844.269531 1916.320312 844.269531 Z M 1265.511719 1111.660156 C 1253.710938 1111.660156 1243.019531 1114.101562 1233.480469 1118.980469 C 1223.929688 1123.839844 1215.789062 1130.890625 1209.070312 1140.109375 C 1202.339844 1149.320312 1197.179688 1160.359375 1193.628906 1173.230469 C 1190.058594 1186.089844 1188.289062 1200.53125 1188.289062 1216.519531 C 1188.289062 1231.820312 1190.039062 1245.820312 1193.558594 1258.539062 C 1197.070312 1271.28125 1202.230469 1282.179688 1209.070312 1291.230469 C 1215.890625 1300.308594 1224.058594 1307.148438 1233.628906 1311.78125 C 1243.179688 1316.410156 1253.808594 1318.730469 1265.511719 1318.730469 C 1277.308594 1318.730469 1287.898438 1316.339844 1297.300781 1311.550781 C 1306.71875 1306.78125 1314.710938 1299.839844 1321.28125 1290.71875 C 1327.871094 1281.601562 1332.890625 1270.570312 1336.351562 1257.589844 C 1339.800781 1244.621094 1341.550781 1229.859375 1341.550781 1213.289062 C 1341.550781 1192.628906 1338.441406 1174.660156 1332.25 1159.410156 C 1326.070312 1144.140625 1317.199219 1132.390625 1305.640625 1124.089844 C 1294.101562 1115.800781 1280.710938 1111.660156 1265.511719 1111.660156 Z M 143.261719 1113.429688 L 143.261719 1313.179688 L 169.292969 1313.179688 L 169.292969 1145.75 C 169.085938 1142.339844 168.996094 1139.179688 168.996094 1136.261719 C 168.996094 1134.210938 169.085938 1132.390625 169.292969 1130.839844 C 171.136719 1139.109375 173.140625 1147.21875 175.28125 1155.101562 L 219.007812 1313.179688 L 240.5 1313.179688 L 282.175781 1155.101562 L 285.101562 1143.421875 C 287.152344 1136.011719 288.28125 1131.808594 288.464844 1130.839844 C 288.855469 1137.269531 289.0625 1140.839844 289.0625 1141.511719 C 289.0625 1144.140625 288.949219 1146.140625 288.761719 1147.5 L 288.761719 1153.789062 C 288.671875 1154.871094 288.554688 1155.890625 288.464844 1156.871094 L 288.464844 1313.179688 L 314.496094 1313.179688 L 314.496094 1113.429688 L 268.722656 1113.429688 L 238.453125 1229.96875 C 235.917969 1239.351562 234.144531 1246.578125 233.128906 1251.691406 C 232.09375 1256.808594 231.148438 1263.421875 230.273438 1271.511719 C 229.699219 1265.078125 228.867188 1259.320312 227.785156 1254.25 C 226.703125 1249.179688 224.558594 1241.101562 221.355469 1229.96875 L 190.210938 1113.429688 Z M 2301.25 1113.539062 C 2285.660156 1113.539062 2271.949219 1117.710938 2260.148438 1126.058594 C 2248.359375 1134.371094 2239.320312 1146.28125 2233.109375 1161.710938 C 2226.859375 1177.171875 2223.730469 1195.488281 2223.730469 1216.628906 C 2223.730469 1236.519531 2226.238281 1253.699219 2231.269531 1268.171875 C 2236.289062 1282.660156 2243.75 1294.21875 2253.660156 1302.910156 C 2263.539062 1311.589844 2275.699219 1317.140625 2290.128906 1319.589844 C 2290.128906 1330.691406 2291.808594 1339.371094 2295.171875 1345.621094 C 2298.53125 1351.839844 2304.058594 1356.308594 2311.78125 1358.980469 C 2319.46875 1361.679688 2330.050781 1363.011719 2343.5 1363.011719 C 2345.761719 1363.011719 2351.628906 1362.808594 2361.191406 1362.410156 L 2361.191406 1341.21875 C 2358.269531 1341.308594 2356.171875 1341.359375 2354.898438 1341.359375 C 2353.640625 1341.359375 2351.929688 1341.429688 2349.789062 1341.519531 L 2339.859375 1341.519531 C 2330.300781 1341.519531 2323.53125 1339.878906 2319.519531 1336.609375 C 2315.539062 1333.339844 2313.53125 1327.671875 2313.53125 1319.589844 C 2356.03125 1310.320312 2377.289062 1275.820312 2377.289062 1216.039062 C 2377.289062 1200.050781 2375.570312 1185.808594 2372.160156 1173.28125 C 2368.75 1160.75 2363.699219 1149.960938 2357.019531 1140.960938 C 2350.339844 1131.949219 2342.28125 1125.109375 2332.828125 1120.480469 C 2323.371094 1115.851562 2312.839844 1113.539062 2301.25 1113.539062 Z M 677.949219 1114.371094 L 677.949219 1314.128906 L 703.980469 1314.128906 L 703.980469 1180.628906 C 703.980469 1167.839844 703.890625 1158.789062 703.679688 1153.421875 C 703.40625 1148.140625 702.851562 1143.148438 702.070312 1138.359375 C 705.777344 1148.308594 709.488281 1156.691406 713.195312 1163.511719 L 792.605469 1314.128906 L 815.710938 1314.128906 L 815.710938 1114.371094 L 789.519531 1114.371094 L 789.519531 1223.75 C 789.519531 1239.160156 790.554688 1254.511719 792.605469 1269.828125 C 788.019531 1254.808594 784.011719 1244.140625 780.601562 1237.808594 L 716.859375 1114.371094 Z M 1724.890625 1116.261719 L 1724.890625 1316.019531 L 1753.25 1316.019531 L 1753.25 1230.019531 L 1785.269531 1230.019531 C 1798.140625 1230.019531 1808.578125 1228.941406 1816.570312 1226.71875 C 1824.570312 1224.539062 1831.300781 1220.761719 1836.75 1215.390625 C 1848.160156 1204.859375 1853.851562 1191.089844 1853.851562 1174.019531 C 1853.851562 1162.128906 1851.058594 1151.558594 1845.441406 1142.289062 C 1839.839844 1133.03125 1832.269531 1126.441406 1822.699219 1122.550781 C 1817.339844 1120.410156 1811.511719 1118.820312 1805.171875 1117.78125 C 1798.808594 1116.769531 1790.820312 1116.261719 1781.191406 1116.261719 Z M 2760.328125 1118.128906 L 2760.328125 1317.878906 L 2788.691406 1317.878906 L 2788.691406 1228.109375 L 2825.25 1228.109375 L 2862.679688 1317.878906 L 2893.25 1317.878906 L 2853.03125 1222.691406 C 2865.21875 1218.109375 2874.460938 1211.589844 2880.738281 1203.160156 C 2887.03125 1194.730469 2890.191406 1184.570312 2890.191406 1172.679688 C 2890.191406 1161.191406 2887.289062 1151.03125 2881.480469 1142.269531 C 2875.679688 1133.5 2867.820312 1127.25 2857.871094 1123.539062 C 2851.929688 1121.308594 2846.308594 1119.828125 2841.050781 1119.160156 C 2835.78125 1118.46875 2827 1118.128906 2814.71875 1118.128906 Z M 1264.910156 1134.191406 C 1280.410156 1134.191406 1292.230469 1141 1300.390625 1154.640625 C 1308.519531 1168.308594 1312.589844 1188.050781 1312.589844 1213.871094 C 1312.589844 1231.328125 1310.75 1246.261719 1307.109375 1258.699219 C 1303.449219 1271.121094 1298.058594 1280.488281 1290.941406 1286.78125 C 1283.820312 1293.070312 1275.25 1296.199219 1265.210938 1296.199219 C 1249.609375 1296.199219 1237.730469 1289.320312 1229.519531 1275.519531 C 1221.339844 1261.71875 1217.25 1241.648438 1217.25 1215.339844 C 1217.25 1198.179688 1219.089844 1183.480469 1222.800781 1171.25 C 1226.5 1159.019531 1231.921875 1149.78125 1239.039062 1143.539062 C 1246.160156 1137.300781 1254.769531 1134.191406 1264.910156 1134.191406 Z M 2300.378906 1136.050781 C 2308.160156 1136.050781 2315.050781 1137.871094 2320.988281 1141.460938 C 2326.941406 1145.078125 2331.941406 1150.378906 2335.96875 1157.410156 C 2340.019531 1164.429688 2343.089844 1173 2345.179688 1183.140625 C 2347.28125 1193.269531 2348.339844 1205.140625 2348.339844 1218.679688 C 2348.339844 1243.929688 2344.261719 1263.46875 2336.128906 1277.308594 C 2327.96875 1291.160156 2316.449219 1298.089844 2301.53125 1298.089844 C 2285.648438 1298.089844 2273.539062 1291.070312 2265.199219 1277.019531 C 2256.859375 1262.980469 2252.691406 1242.671875 2252.691406 1216.039062 C 2252.691406 1199.289062 2254.578125 1184.871094 2258.328125 1172.839844 C 2262.089844 1160.789062 2267.519531 1151.648438 2274.621094 1145.429688 C 2281.738281 1139.179688 2290.328125 1136.050781 2300.378906 1136.050781 Z M 1753.25 1138.058594 L 1778.398438 1138.058594 C 1785.128906 1138.058594 1790.710938 1138.289062 1795.148438 1138.769531 C 1799.570312 1139.25 1803.398438 1140.148438 1806.628906 1141.421875 C 1812.078125 1143.441406 1816.480469 1147.390625 1819.851562 1153.171875 C 1823.210938 1158.96875 1824.890625 1165.628906 1824.890625 1173.140625 C 1824.890625 1185.421875 1821.5 1194.339844 1814.730469 1199.910156 C 1807.960938 1205.460938 1797.179688 1208.230469 1782.339844 1208.230469 L 1753.25 1208.230469 Z M 2788.691406 1139.921875 L 2811.21875 1139.921875 C 2823.5 1139.921875 2833.449219 1140.839844 2841.050781 1142.710938 C 2844.949219 1143.859375 2848.449219 1145.890625 2851.578125 1148.769531 C 2854.691406 1151.648438 2857.089844 1155.148438 2858.75 1159.300781 C 2860.398438 1163.441406 2861.230469 1168 2861.230469 1172.980469 C 2861.230469 1179.410156 2859.941406 1185.03125 2857.359375 1189.871094 C 2854.78125 1194.679688 2851.140625 1198.320312 2846.46875 1200.761719 C 2842.941406 1202.691406 2839.019531 1203.988281 2834.699219 1204.628906 C 2830.339844 1205.25 2823.980469 1205.578125 2815.601562 1205.578125 L 2788.691406 1205.578125 Z M 361.8125 1308.808594 C 355.546875 1308.808594 350.296875 1310.578125 346.101562 1314.171875 C 341.886719 1317.738281 339.191406 1322.789062 337.992188 1329.308594 L 347.714844 1331.039062 C 348.429688 1326.289062 350.042969 1322.71875 352.574219 1320.351562 C 355.085938 1317.96875 358.242188 1316.78125 362.019531 1316.78125 C 365.847656 1316.78125 368.957031 1317.949219 371.351562 1320.300781 C 373.769531 1322.621094 374.96875 1325.578125 374.96875 1329.148438 C 374.96875 1333.640625 373.332031 1336.980469 370.015625 1339.140625 C 366.699219 1341.289062 362.964844 1342.371094 358.839844 1342.371094 C 358.425781 1342.371094 357.921875 1342.351562 357.273438 1342.28125 L 356.191406 1350.800781 C 358.933594 1350.089844 361.214844 1349.71875 363.035156 1349.71875 C 367.550781 1349.71875 371.257812 1351.171875 374.164062 1354.070312 C 377.085938 1356.980469 378.539062 1360.640625 378.539062 1365.109375 C 378.539062 1369.789062 376.972656 1373.699219 373.816406 1376.878906 C 370.660156 1380.039062 366.8125 1381.621094 362.226562 1381.621094 C 358.382812 1381.621094 355.109375 1380.429688 352.4375 1377.980469 C 349.742188 1375.570312 347.855469 1371.578125 346.746094 1366.070312 L 337.027344 1367.371094 C 337.671875 1373.949219 340.296875 1379.320312 344.882812 1383.46875 C 349.464844 1387.609375 355.226562 1389.660156 362.183594 1389.660156 C 369.878906 1389.660156 376.257812 1387.269531 381.304688 1382.480469 C 386.324219 1377.660156 388.859375 1371.808594 388.859375 1364.898438 C 388.859375 1359.789062 387.570312 1355.519531 384.964844 1352.109375 C 382.386719 1348.730469 378.746094 1346.46875 374.070312 1345.410156 C 377.664062 1343.75 380.382812 1341.519531 382.199219 1338.710938 C 384.042969 1335.898438 384.964844 1332.789062 384.964844 1329.359375 C 384.964844 1325.761719 384 1322.371094 382.085938 1319.171875 C 380.152344 1315.941406 377.363281 1313.429688 373.746094 1311.570312 C 370.109375 1309.730469 366.121094 1308.808594 361.8125 1308.808594 Z M 885.191406 1309.730469 C 883.484375 1313.160156 880.605469 1316.679688 876.550781 1320.320312 C 872.472656 1323.941406 867.726562 1327.050781 862.292969 1329.609375 L 862.292969 1339.011719 C 865.308594 1337.878906 868.71875 1336.21875 872.519531 1333.980469 C 876.320312 1331.75 879.386719 1329.519531 881.734375 1327.28125 L 881.734375 1389.199219 L 891.433594 1389.199219 L 891.433594 1309.730469 Z M 1403.058594 1310.671875 C 1401.359375 1314.078125 1398.480469 1317.628906 1394.421875 1321.25 C 1390.339844 1324.890625 1385.601562 1328 1380.160156 1330.550781 L 1380.160156 1339.929688 C 1383.179688 1338.820312 1386.589844 1337.140625 1390.390625 1334.910156 C 1394.191406 1332.691406 1397.261719 1330.460938 1399.609375 1328.230469 L 1399.609375 1390.148438 L 1409.308594 1390.148438 L 1409.308594 1310.671875 Z M 1915.429688 1311.621094 C 1909.160156 1311.621094 1903.910156 1313.410156 1899.71875 1316.980469 C 1895.5 1320.578125 1892.808594 1325.621094 1891.609375 1332.121094 L 1901.328125 1333.851562 C 1902.039062 1329.101562 1903.660156 1325.558594 1906.191406 1323.160156 C 1908.699219 1320.789062 1911.859375 1319.609375 1915.628906 1319.609375 C 1919.460938 1319.609375 1922.570312 1320.761719 1924.96875 1323.109375 C 1927.378906 1325.460938 1928.578125 1328.410156 1928.578125 1331.960938 C 1928.578125 1336.46875 1926.941406 1339.789062 1923.628906 1341.949219 C 1920.308594 1344.121094 1916.578125 1345.199219 1912.460938 1345.199219 C 1912.039062 1345.199219 1911.53125 1345.160156 1910.890625 1345.089844 L 1909.808594 1353.609375 C 1912.550781 1352.898438 1914.828125 1352.53125 1916.648438 1352.53125 C 1921.160156 1352.53125 1924.871094 1353.980469 1927.769531 1356.878906 C 1930.699219 1359.789062 1932.148438 1363.46875 1932.148438 1367.921875 C 1932.148438 1372.589844 1930.589844 1376.539062 1927.429688 1379.691406 C 1924.269531 1382.871094 1920.429688 1384.460938 1915.839844 1384.460938 C 1912 1384.460938 1908.71875 1383.238281 1906.050781 1380.800781 C 1903.378906 1378.378906 1901.46875 1374.410156 1900.359375 1368.910156 L 1890.640625 1370.199219 C 1891.289062 1376.789062 1893.910156 1382.160156 1898.5 1386.28125 C 1903.078125 1390.429688 1908.839844 1392.5 1915.800781 1392.5 C 1923.488281 1392.5 1929.871094 1390.078125 1934.921875 1385.289062 C 1939.941406 1380.46875 1942.46875 1374.621094 1942.46875 1367.710938 C 1942.46875 1362.601562 1941.179688 1358.339844 1938.578125 1354.949219 C 1936 1351.539062 1932.359375 1349.308594 1927.679688 1348.21875 C 1931.28125 1346.558594 1934 1344.328125 1935.808594 1341.519531 C 1937.660156 1338.710938 1938.578125 1335.601562 1938.578125 1332.191406 C 1938.578125 1328.589844 1937.609375 1325.179688 1935.699219 1321.980469 C 1933.769531 1318.78125 1930.980469 1316.25 1927.359375 1314.398438 C 1923.71875 1312.539062 1919.730469 1311.621094 1915.429688 1311.621094 Z M 2408.859375 1312.558594 C 2407.148438 1315.96875 2404.269531 1319.5 2400.21875 1323.128906 C 2396.140625 1326.769531 2391.390625 1329.859375 2385.960938 1332.421875 L 2385.960938 1341.820312 C 2388.96875 1340.691406 2392.390625 1339.03125 2396.179688 1336.800781 C 2399.988281 1334.558594 2403.050781 1332.320312 2405.398438 1330.089844 L 2405.398438 1392.039062 L 2415.121094 1392.039062 L 2415.121094 1312.558594 Z M 2465.808594 1312.558594 C 2460.039062 1312.558594 2455.28125 1314.109375 2451.46875 1317.191406 C 2447.671875 1320.300781 2444.820312 1324.699219 2442.878906 1330.390625 C 2440.96875 1336.109375 2440 1343.640625 2440 1352.988281 C 2440 1367.851562 2442.609375 1378.589844 2447.839844 1385.171875 C 2452.191406 1390.628906 2458.179688 1393.371094 2465.808594 1393.371094 C 2471.609375 1393.371094 2476.398438 1391.828125 2480.199219 1388.699219 C 2484 1385.589844 2486.859375 1381.191406 2488.75 1375.480469 C 2490.660156 1369.789062 2491.628906 1362.269531 2491.628906 1352.988281 C 2491.628906 1345.140625 2491.03125 1338.910156 2489.828125 1334.289062 C 2488.660156 1329.660156 2487.019531 1325.738281 2484.921875 1322.511719 C 2482.828125 1319.289062 2480.199219 1316.820312 2476.980469 1315.121094 C 2473.769531 1313.410156 2470.070312 1312.558594 2465.808594 1312.558594 Z M 2956.679688 1313.480469 C 2954.96875 1316.910156 2952.089844 1320.441406 2948.039062 1324.078125 C 2943.960938 1327.71875 2939.210938 1330.808594 2933.78125 1333.359375 L 2933.78125 1342.761719 C 2936.789062 1341.628906 2940.199219 1339.980469 2944 1337.738281 C 2947.808594 1335.511719 2950.871094 1333.269531 2953.21875 1331.039062 L 2953.21875 1392.960938 L 2962.921875 1392.960938 L 2962.921875 1313.480469 Z M 2465.710938 1320.601562 C 2470.230469 1320.601562 2474.03125 1322.738281 2477.070312 1327.03125 C 2480.109375 1331.308594 2481.628906 1339.949219 2481.628906 1352.988281 C 2481.628906 1365.960938 2480.109375 1374.601562 2477.070312 1378.910156 C 2474.03125 1383.238281 2470.269531 1385.378906 2465.808594 1385.378906 C 2461.359375 1385.378906 2457.601562 1383.238281 2454.558594 1378.929688 C 2451.519531 1374.640625 2450 1365.980469 2450 1352.988281 C 2450 1340 2451.660156 1331.078125 2455.019531 1326.269531 C 2457.671875 1322.488281 2461.238281 1320.601562 2465.710938 1320.601562 Z M 228.453125 1617.882812 C 216.75 1617.882812 206.085938 1620.257812 196.5 1625.050781 C 186.894531 1629.816406 179.429688 1636.476562 174.109375 1645 C 168.808594 1653.546875 166.160156 1663.058594 166.160156 1673.585938 C 166.160156 1695.035156 175.03125 1710.746094 192.769531 1720.675781 C 198.019531 1723.417969 202.652344 1725.511719 206.660156 1726.964844 C 210.644531 1728.414062 217.71875 1730.71875 227.855469 1733.828125 C 242 1738.136719 251.8125 1742.996094 257.320312 1748.457031 C 262.824219 1753.917969 265.589844 1761.425781 265.589844 1770.988281 C 265.589844 1780.132812 262.339844 1787.667969 255.867188 1793.5625 C 249.371094 1799.460938 240.914062 1802.410156 230.480469 1802.410156 C 218.800781 1802.410156 209.445312 1799.394531 202.488281 1793.355469 C 195.511719 1787.320312 189.980469 1777.367188 185.882812 1763.523438 L 158.695312 1770.6875 C 161.023438 1782 165.425781 1791.699219 171.851562 1799.785156 C 178.277344 1807.894531 186.410156 1814.089844 196.199219 1818.445312 C 205.992188 1822.773438 217.144531 1824.941406 229.605469 1824.941406 C 238.980469 1824.941406 247.550781 1823.558594 255.359375 1820.769531 C 263.148438 1817.984375 269.875 1813.953125 275.542969 1808.628906 C 281.1875 1803.332031 285.515625 1797.066406 288.53125 1789.832031 C 291.574219 1782.621094 293.070312 1774.742188 293.070312 1766.148438 C 293.070312 1756.3125 291 1747.398438 286.851562 1739.402344 C 282.726562 1731.410156 276.785156 1725.074219 269.089844 1720.375 C 259.253906 1714.429688 246.46875 1709.132812 230.78125 1704.433594 C 220.460938 1701.230469 212.671875 1698.191406 207.464844 1695.3125 C 202.238281 1692.433594 198.597656 1689.066406 196.5 1685.21875 C 194.40625 1681.375 193.34375 1676.421875 193.34375 1670.382812 C 193.34375 1664.535156 194.726562 1659.328125 197.511719 1654.789062 C 200.300781 1650.273438 204.148438 1646.726562 209.078125 1644.191406 C 213.984375 1641.65625 219.722656 1640.390625 226.242188 1640.390625 C 246.238281 1640.390625 258.425781 1651.75 262.800781 1674.460938 L 288.996094 1668.613281 C 286.828125 1657.898438 283.003906 1648.707031 277.5 1641.058594 C 271.992188 1633.410156 265.082031 1627.628906 256.742188 1623.734375 C 248.402344 1619.816406 238.980469 1617.882812 228.453125 1617.882812 Z M 677.214844 1622.46875 L 677.214844 1646.449219 L 732.339844 1646.449219 L 732.339844 1822.222656 L 760.859375 1822.222656 L 760.859375 1646.449219 L 816.585938 1646.449219 L 816.585938 1622.46875 Z M 1197.640625 1623.414062 L 1197.640625 1750.046875 C 1197.640625 1765.941406 1198.46875 1777.484375 1200.128906 1784.695312 C 1201.789062 1791.929688 1205.269531 1798.65625 1210.519531 1804.875 C 1214.410156 1809.460938 1219.070312 1813.445312 1224.480469 1816.808594 C 1229.890625 1820.171875 1235.929688 1822.683594 1242.609375 1824.339844 C 1249.289062 1826 1256.199219 1826.828125 1263.320312 1826.828125 C 1275.78125 1826.828125 1286.960938 1824.59375 1296.789062 1820.171875 C 1306.648438 1815.726562 1314.53125 1809.414062 1320.46875 1801.234375 C 1328.101562 1790.316406 1331.898438 1773.246094 1331.898438 1750.046875 L 1331.898438 1623.414062 L 1303.378906 1623.414062 L 1303.378906 1752.835938 C 1303.378906 1771.054688 1300.429688 1784.003906 1294.539062 1791.652344 C 1288.640625 1799.300781 1278.621094 1803.125 1264.46875 1803.125 C 1256.089844 1803.125 1248.789062 1801.167969 1242.539062 1797.203125 C 1236.300781 1793.265625 1232.011719 1787.921875 1229.691406 1781.195312 C 1228.511719 1777.300781 1227.679688 1773.246094 1227.199219 1769.050781 C 1226.691406 1764.859375 1226.460938 1758.523438 1226.460938 1750.046875 L 1226.460938 1623.414062 Z M 1710.929688 1624.359375 L 1769.859375 1824.6875 L 1796.320312 1824.6875 L 1854.378906 1624.359375 L 1827.46875 1624.359375 L 1792.691406 1749.519531 C 1792.570312 1749.519531 1791.808594 1752.742188 1790.339844 1759.171875 L 1789.019531 1764.144531 L 1787.851562 1768.984375 C 1786.308594 1774.535156 1785.128906 1782.046875 1784.351562 1791.492188 C 1783.46875 1785.847656 1782.410156 1780.363281 1781.191406 1775.042969 C 1779.96875 1769.71875 1777.808594 1761.21875 1774.691406 1749.519531 L 1740.050781 1624.359375 Z M 2195.949219 1625.300781 L 2238.800781 1825.632812 L 2264.25 1825.632812 L 2294.519531 1695.332031 C 2296.570312 1686.855469 2297.910156 1680.5 2298.53125 1676.261719 C 2299.179688 1672.019531 2299.550781 1666.90625 2299.640625 1660.960938 C 2299.941406 1671.007812 2301.640625 1682.457031 2304.75 1695.332031 L 2333.570312 1825.632812 L 2359.878906 1825.632812 L 2405.078125 1625.300781 L 2378.171875 1625.300781 L 2353.589844 1749.011719 C 2353.410156 1749.976562 2352.921875 1752.558594 2352.140625 1756.75 C 2351.359375 1760.945312 2350.710938 1764.5625 2350.230469 1767.578125 C 2349.171875 1774.097656 2348.378906 1780.984375 2347.898438 1788.195312 C 2347.390625 1780.871094 2346.859375 1775.203125 2346.289062 1771.148438 C 2345.691406 1767.117188 2344.140625 1759.722656 2341.609375 1749.011719 L 2314.980469 1625.300781 L 2287.359375 1625.300781 L 2259.570312 1749.011719 C 2256.261719 1764.121094 2254.351562 1777.183594 2253.859375 1788.195312 C 2253.378906 1780.292969 2252.640625 1773.523438 2251.679688 1767.855469 C 2250.199219 1759.675781 2249.46875 1755.371094 2249.390625 1754.929688 C 2249.351562 1754.492188 2249.050781 1752.511719 2248.449219 1749.011719 L 2224.191406 1625.300781 Z M 2749.5 1626.222656 L 2803.480469 1722.308594 L 2744.988281 1825.976562 L 2774.359375 1825.976562 L 2813.839844 1753.457031 C 2815.890625 1749.929688 2817.300781 1746.960938 2818.078125 1744.539062 C 2818.480469 1745.210938 2818.710938 1745.691406 2818.75 1745.992188 C 2818.800781 1746.292969 2819.210938 1747.191406 2820 1748.6875 C 2820.78125 1750.207031 2821.558594 1751.796875 2822.320312 1753.457031 L 2860.628906 1825.976562 L 2892.078125 1825.976562 L 2832.71875 1720.835938 L 2885.21875 1626.222656 L 2856.390625 1626.222656 L 2822.320312 1689.390625 C 2820.179688 1693.585938 2818.769531 1696.808594 2818.078125 1699.042969 C 2817.121094 1696.023438 2815.710938 1692.824219 2813.839844 1689.390625 L 2780.949219 1626.222656 Z M 367.320312 1816.898438 C 365.617188 1820.308594 362.734375 1823.835938 358.679688 1827.472656 C 354.601562 1831.113281 349.859375 1834.203125 344.421875 1836.757812 L 344.421875 1846.15625 C 347.441406 1845.027344 350.847656 1843.371094 354.648438 1841.136719 C 358.449219 1838.902344 361.515625 1836.664062 363.863281 1834.429688 L 363.863281 1896.378906 L 373.585938 1896.378906 L 373.585938 1816.898438 Z M 885.191406 1817.824219 C 883.484375 1821.253906 880.605469 1824.78125 876.550781 1828.417969 C 872.472656 1832.058594 867.726562 1835.144531 862.292969 1837.703125 L 862.292969 1847.101562 C 865.308594 1845.972656 868.71875 1844.316406 872.519531 1842.082031 C 876.320312 1839.847656 879.386719 1837.609375 881.734375 1835.375 L 881.734375 1897.300781 L 891.433594 1897.300781 L 891.433594 1817.824219 Z M 1403.058594 1818.765625 C 1401.359375 1822.175781 1398.480469 1825.722656 1394.421875 1829.339844 C 1390.339844 1832.980469 1385.601562 1836.089844 1380.160156 1838.648438 L 1380.160156 1848.023438 C 1383.179688 1846.917969 1386.589844 1845.234375 1390.390625 1843 C 1394.191406 1840.789062 1397.261719 1838.554688 1399.609375 1836.320312 L 1399.609375 1898.242188 L 1409.308594 1898.242188 L 1409.308594 1818.765625 Z M 1923.511719 1820.03125 L 1887.390625 1871.3125 L 1887.390625 1880.230469 L 1921.738281 1880.230469 L 1921.738281 1899.1875 L 1931.460938 1899.1875 L 1931.460938 1880.230469 L 1942.148438 1880.230469 L 1942.148438 1871.3125 L 1931.460938 1871.3125 L 1931.460938 1820.03125 Z M 2441.378906 1820.976562 L 2405.261719 1872.257812 L 2405.261719 1881.175781 L 2439.609375 1881.175781 L 2439.609375 1900.132812 L 2449.328125 1900.132812 L 2449.328125 1881.175781 L 2460.019531 1881.175781 L 2460.019531 1872.257812 L 2449.328125 1872.257812 L 2449.328125 1820.976562 Z M 2952.140625 1821.578125 C 2945.25 1821.578125 2939.738281 1823.558594 2935.621094 1827.472656 C 2931.46875 1831.390625 2929.398438 1836.230469 2929.398438 1841.988281 C 2929.398438 1845.8125 2930.371094 1849.082031 2932.320312 1851.824219 C 2934.261719 1854.566406 2937.25 1856.660156 2941.289062 1858.136719 C 2936.449219 1859.402344 2932.738281 1861.777344 2930.140625 1865.230469 C 2927.511719 1868.710938 2926.21875 1873.019531 2926.21875 1878.179688 C 2926.21875 1885.089844 2928.609375 1890.847656 2933.410156 1895.480469 C 2938.179688 1900.109375 2944.488281 1902.414062 2952.300781 1902.414062 C 2960.109375 1902.414062 2966.390625 1900.109375 2971.191406 1895.503906 C 2975.980469 1890.894531 2978.378906 1885.207031 2978.378906 1878.433594 C 2978.378906 1873.546875 2977.109375 1869.332031 2974.570312 1865.808594 C 2972.019531 1862.28125 2968.328125 1859.726562 2963.46875 1858.136719 C 2967.390625 1856.660156 2970.308594 1854.566406 2972.25 1851.847656 C 2974.160156 1849.128906 2975.128906 1845.929688 2975.128906 1842.265625 C 2975.128906 1836.503906 2973.03125 1831.621094 2968.820312 1827.613281 C 2964.601562 1823.605469 2959.050781 1821.578125 2952.140625 1821.578125 Z M 2952.230469 1829.570312 C 2955.910156 1829.570312 2958.980469 1830.792969 2961.449219 1833.234375 C 2963.910156 1835.652344 2965.148438 1838.648438 2965.148438 1842.21875 C 2965.148438 1845.628906 2963.949219 1848.53125 2961.558594 1850.878906 C 2959.160156 1853.230469 2956.101562 1854.402344 2952.339844 1854.402344 C 2948.5 1854.402344 2945.359375 1853.230469 2942.949219 1850.859375 C 2940.550781 1848.484375 2939.328125 1845.421875 2939.328125 1841.664062 C 2939.328125 1838.371094 2940.550781 1835.515625 2943.011719 1833.140625 C 2945.449219 1830.769531 2948.539062 1829.570312 2952.230469 1829.570312 Z M 1921.738281 1835.628906 L 1921.738281 1871.3125 L 1896.949219 1871.3125 Z M 2439.609375 1836.574219 L 2439.609375 1872.257812 L 2414.820312 1872.257812 Z M 2952.070312 1862.351562 C 2956.769531 1862.351562 2960.660156 1863.871094 2963.769531 1866.9375 C 2966.878906 1870 2968.449219 1873.871094 2968.449219 1878.546875 C 2968.449219 1883.15625 2966.929688 1886.957031 2963.910156 1889.953125 C 2960.871094 1892.921875 2957.039062 1894.417969 2952.410156 1894.417969 C 2949.421875 1894.417969 2946.628906 1893.707031 2944.03125 1892.300781 C 2941.449219 1890.871094 2939.488281 1888.867188 2938.179688 1886.265625 C 2936.859375 1883.683594 2936.199219 1880.988281 2936.199219 1878.222656 C 2936.199219 1873.6875 2937.71875 1869.910156 2940.710938 1866.890625 C 2943.730469 1863.871094 2947.5 1862.351562 2952.070312 1862.351562 Z M 155.265625 2131.507812 L 215.066406 2247.753906 L 215.066406 2331.261719 L 243.585938 2331.261719 L 243.585938 2244.6875 L 302.792969 2131.507812 L 273.558594 2131.507812 L 233.636719 2213.542969 C 232.070312 2216.859375 230.894531 2220.660156 230.132812 2224.945312 C 229.351562 2222.320312 227.832031 2218.519531 225.597656 2213.542969 L 185.074219 2131.507812 Z M 2761.070312 2134.757812 L 2761.070312 2158.4375 L 2847.640625 2158.4375 L 2755.058594 2316.816406 L 2755.058594 2334.507812 L 2880.808594 2334.507812 L 2880.808594 2312.554688 L 2788.851562 2312.554688 L 2880.808594 2153.898438 L 2880.808594 2134.757812 Z M 369.902344 2327.183594 L 333.777344 2378.488281 L 333.777344 2387.378906 L 368.125 2387.378906 L 368.125 2406.339844 L 377.847656 2406.339844 L 377.847656 2387.378906 L 388.535156 2387.378906 L 388.535156 2378.488281 L 377.847656 2378.488281 L 377.847656 2327.183594 Z M 2926.730469 2328.222656 C 2925.019531 2331.652344 2922.140625 2335.179688 2918.089844 2338.816406 C 2914.011719 2342.457031 2909.269531 2345.542969 2903.828125 2348.101562 L 2903.828125 2357.5 C 2906.851562 2356.371094 2910.25 2354.714844 2914.058594 2352.480469 C 2917.859375 2350.246094 2920.921875 2348.007812 2923.269531 2345.773438 L 2923.269531 2407.699219 L 2932.988281 2407.699219 L 2932.988281 2328.222656 Z M 2983.679688 2328.222656 C 2977.910156 2328.222656 2973.140625 2329.785156 2969.339844 2332.875 C 2965.539062 2335.960938 2962.691406 2340.363281 2960.75 2346.074219 C 2958.839844 2351.789062 2957.871094 2359.320312 2957.871094 2368.671875 C 2957.871094 2383.53125 2960.480469 2394.269531 2965.699219 2400.855469 C 2970.058594 2406.316406 2976.050781 2409.058594 2983.679688 2409.058594 C 2989.480469 2409.058594 2994.269531 2407.492188 2998.070312 2404.382812 C 3001.878906 2401.269531 3004.730469 2396.871094 3006.621094 2391.15625 C 3008.53125 2385.445312 3009.5 2377.957031 3009.5 2368.671875 C 3009.5 2360.816406 3008.898438 2354.574219 3007.699219 2349.964844 C 3006.53125 2345.335938 3004.890625 2341.421875 3002.789062 2338.195312 C 3000.699219 2334.972656 2998.070312 2332.503906 2994.851562 2330.800781 C 2991.640625 2329.074219 2987.941406 2328.222656 2983.679688 2328.222656 Z M 2983.578125 2336.285156 C 2988.101562 2336.285156 2991.898438 2338.425781 2994.941406 2342.6875 C 2997.980469 2346.972656 2999.5 2355.632812 2999.5 2368.671875 C 2999.5 2381.621094 2997.980469 2390.257812 2994.941406 2394.589844 C 2991.898438 2398.898438 2988.140625 2401.0625 2983.679688 2401.0625 C 2979.230469 2401.0625 2975.46875 2398.921875 2972.429688 2394.613281 C 2969.390625 2390.304688 2967.871094 2381.664062 2967.871094 2368.671875 C 2967.871094 2355.679688 2969.53125 2346.765625 2972.890625 2341.949219 C 2975.539062 2338.171875 2979.109375 2336.285156 2983.578125 2336.285156 Z M 368.125 2342.78125 L 368.125 2378.488281 L 343.335938 2378.488281 Z M 368.125 2342.78125 "/>
</svg>
